<svg xmlns="http://www.w3.org/2000/svg" viewBox="0 0 4845.18 826.75" width="4845.18" height="826.75" style="--bg:#1a1b26;--fg:#a9b1d6;--line:#3d59a1;--accent:#7aa2f7;--muted:#565f89;background:var(--bg)">
<style>
  @import url('https://fonts.googleapis.com/css2?family=Inter:wght@400;500;600;700&amp;display=swap');
  text { font-family: 'Inter', system-ui, sans-serif; }
  svg {
    /* Derived from --bg and --fg (overridable via --line, --accent, etc.) */
    --_text:          var(--fg);
    --_text-sec:      var(--muted, color-mix(in srgb, var(--fg) 60%, var(--bg)));
    --_text-muted:    var(--muted, color-mix(in srgb, var(--fg) 40%, var(--bg)));
    --_text-faint:    color-mix(in srgb, var(--fg) 25%, var(--bg));
    --_line:          var(--line, color-mix(in srgb, var(--fg) 30%, var(--bg)));
    --_arrow:         var(--accent, color-mix(in srgb, var(--fg) 50%, var(--bg)));
    --_node-fill:     var(--surface, color-mix(in srgb, var(--fg) 3%, var(--bg)));
    --_node-stroke:   var(--border, color-mix(in srgb, var(--fg) 20%, var(--bg)));
    --_group-fill:    var(--bg);
    --_group-hdr:     color-mix(in srgb, var(--fg) 5%, var(--bg));
    --_inner-stroke:  color-mix(in srgb, var(--fg) 12%, var(--bg));
    --_key-badge:     color-mix(in srgb, var(--fg) 10%, var(--bg));
  }
</style>
<defs>
  <marker id="arrowhead" markerWidth="8" markerHeight="4.8" refX="8" refY="2.4" orient="auto">
    <polygon points="0 0, 8 2.4, 0 4.8" fill="var(--_arrow)" />
  </marker>
  <marker id="arrowhead-start" markerWidth="8" markerHeight="4.8" refX="0" refY="2.4" orient="auto-start-reverse">
    <polygon points="8 0, 0 2.4, 8 4.8" fill="var(--_arrow)" />
  </marker>
</defs>
<rect x="40" y="248.25" width="307.95000000000005" height="176" rx="0" ry="0" fill="var(--_group-fill)" stroke="var(--_node-stroke)" stroke-width="1" />
<rect x="40" y="248.25" width="307.95000000000005" height="28" rx="0" ry="0" fill="var(--_group-hdr)" stroke="var(--_node-stroke)" stroke-width="1" />
<text x="52" y="262.25" dy="0.35em" font-size="12" font-weight="600" fill="var(--_text-sec)">&quot;Controlled Clients&quot;</text>
<rect x="427.95000000000005" y="200" width="2669.9800000000005" height="261.25" rx="0" ry="0" fill="var(--_group-fill)" stroke="var(--_node-stroke)" stroke-width="1" />
<rect x="427.95000000000005" y="200" width="2669.9800000000005" height="28" rx="0" ry="0" fill="var(--_group-hdr)" stroke="var(--_node-stroke)" stroke-width="1" />
<text x="439.95000000000005" y="214" dy="0.35em" font-size="12" font-weight="600" fill="var(--_text-sec)">&quot;BOS Genesis K8s Inspector Service&quot;</text>
<rect x="2030.2300000000005" y="40" width="543.8999999999999" height="176" rx="0" ry="0" fill="var(--_group-fill)" stroke="var(--_node-stroke)" stroke-width="1" />
<rect x="2030.2300000000005" y="40" width="543.8999999999999" height="28" rx="0" ry="0" fill="var(--_group-hdr)" stroke="var(--_node-stroke)" stroke-width="1" />
<text x="2042.2300000000005" y="54" dy="0.35em" font-size="12" font-weight="600" fill="var(--_text-sec)">&quot;Policy And Configuration Boundary&quot;</text>
<rect x="2030.23" y="445.25" width="2774.95" height="181.5" rx="0" ry="0" fill="var(--_group-fill)" stroke="var(--_node-stroke)" stroke-width="1" />
<rect x="2030.23" y="445.25" width="2774.95" height="28" rx="0" ry="0" fill="var(--_group-hdr)" stroke="var(--_node-stroke)" stroke-width="1" />
<text x="2042.23" y="459.25" dy="0.35em" font-size="12" font-weight="600" fill="var(--_text-sec)">&quot;Kubernetes Namespace Boundary&quot;</text>
<rect x="2030.2300000000005" y="610.75" width="1067.7" height="176" rx="0" ry="0" fill="var(--_group-fill)" stroke="var(--_node-stroke)" stroke-width="1" />
<rect x="2030.2300000000005" y="610.75" width="1067.7" height="28" rx="0" ry="0" fill="var(--_group-hdr)" stroke="var(--_node-stroke)" stroke-width="1" />
<text x="2042.2300000000005" y="624.75" dy="0.35em" font-size="12" font-weight="600" fill="var(--_text-sec)">&quot;Audit And Observability&quot;</text>
<polyline points="327.95000000000005,384.25 472.975,384.25" fill="none" stroke="var(--_line)" stroke-width="0.75" marker-end="url(#arrowhead)" />
<polyline points="317.225,324.25 447.95000000000005,324.25" fill="none" stroke="var(--_line)" stroke-width="0.75" marker-end="url(#arrowhead)" />
<polyline points="755.225,384.25 1069.975,384.25 1069.975,376.75" fill="none" stroke="var(--_line)" stroke-width="0.75" marker-end="url(#arrowhead)" />
<polyline points="780.25,324.25 1069.975,324.25 1069.975,340.75" fill="none" stroke="var(--_line)" stroke-width="0.75" marker-end="url(#arrowhead)" />
<polyline points="1239.6999999999998,358.75 1359.7,358.75" fill="none" stroke="var(--_line)" stroke-width="0.75" marker-end="url(#arrowhead)" />
<polyline points="1813.55,358.75 1833.5500000000002,358.75 1833.5500000000002,330.25 2118.155,330.25" fill="none" stroke="var(--_line)" stroke-width="0.75" marker-end="url(#arrowhead)" />
<polyline points="2486.2050000000004,330.25 2876.03,330.25 2876.03,312.5" fill="none" stroke="var(--_line)" stroke-width="0.75" marker-end="url(#arrowhead)" />
<polyline points="2734.905,294.5 2654.13,294.5 2654.13,270.25 1586.625,270.25 1586.625,340.75" fill="none" stroke="var(--_line)" stroke-width="0.75" marker-end="url(#arrowhead)" />
<polyline points="2554.13,176 2594.13,176 2594.13,310.25 2876.03,310.25 2876.03,312.5" fill="none" stroke="var(--_line)" stroke-width="0.75" marker-end="url(#arrowhead)" />
<polyline points="2554.13,116 2594.13,116 2594.13,290.25 2876.03,290.25 2876.03,276.5" fill="none" stroke="var(--_line)" stroke-width="0.75" marker-end="url(#arrowhead)" />
<polyline points="1813.55,358.75 2302.1800000000003,358.75 2302.1800000000003,508.75" fill="none" stroke="var(--_line)" stroke-width="0.75" marker-end="url(#arrowhead)" />
<polyline points="2532.6800000000003,526.75 2674.13,526.75" fill="none" stroke="var(--_line)" stroke-width="0.75" marker-end="url(#arrowhead)" />
<polyline points="3077.9300000000003,526.75 3197.9300000000003,526.75" fill="none" stroke="var(--_line)" stroke-width="0.75" marker-end="url(#arrowhead)" />
<polyline points="3508.7800000000007,526.75 3628.78,526.75" fill="none" stroke="var(--_line)" stroke-width="0.75" marker-end="url(#arrowhead)" />
<polyline points="3939.6300000000006,526.75 4077.5049999999997,526.75" fill="none" stroke="var(--_line)" stroke-width="0.75" marker-end="url(#arrowhead)" />
<polyline points="1813.55,358.75 1833.5500000000002,358.75 1833.5500000000002,395.75 2302.1800000000003,395.75 2302.1800000000003,668.75" fill="none" stroke="var(--_line)" stroke-width="0.75" marker-end="url(#arrowhead)" />
<polyline points="1813.55,358.75 1833.5500000000002,358.75 1833.5500000000002,432.75 2302.1800000000003,432.75 2302.1800000000003,728.75" fill="none" stroke="var(--_line)" stroke-width="0.75" marker-end="url(#arrowhead)" />
<polyline points="2539.8300000000004,746.75 2684.855,746.75" fill="none" stroke="var(--_line)" stroke-width="0.75" marker-end="url(#arrowhead)" />
<rect x="2259.86" y="256.75" width="84.64" height="27" rx="4" ry="4" fill="var(--bg)" stroke="var(--_inner-stroke)" stroke-width="0.5" />
<text x="2302.1800000000003" y="270.25" text-anchor="middle" dy="0.35em" font-size="11" font-weight="400" fill="var(--_text-muted)">allow / deny</text>
<rect x="1869.5500000000002" y="345.25" width="124.68" height="27" rx="4" ry="4" fill="var(--bg)" stroke="var(--_inner-stroke)" stroke-width="0.5" />
<text x="1931.89" y="358.75" text-anchor="middle" dy="0.35em" font-size="11" font-weight="400" fill="var(--_text-muted)">validated operation</text>
<rect x="1878.13" y="382.25" width="107.52000000000001" height="27" rx="4" ry="4" fill="var(--bg)" stroke="var(--_inner-stroke)" stroke-width="0.5" />
<text x="1931.89" y="395.75" text-anchor="middle" dy="0.35em" font-size="11" font-weight="400" fill="var(--_text-muted)">operation events</text>
<rect x="1892.43" y="419.25" width="78.92" height="27" rx="4" ry="4" fill="var(--bg)" stroke="var(--_inner-stroke)" stroke-width="0.5" />
<text x="1931.89" y="432.75" text-anchor="middle" dy="0.35em" font-size="11" font-weight="400" fill="var(--_text-muted)">trace spans</text>
<rect x="60" y="366.25" width="267.95000000000005" height="36" rx="0" ry="0" fill="#DBEAFE" stroke="#2563EB" stroke-width="2px" />
<rect x="70.72500000000001" y="306.25" width="246.50000000000003" height="36" rx="0" ry="0" fill="#E0F2FE" stroke="#0284C7" stroke-width="2px" />
<rect x="472.975" y="366.25" width="282.25" height="36" rx="0" ry="0" fill="#DBEAFE" stroke="#2563EB" stroke-width="2px" />
<rect x="447.95000000000005" y="306.25" width="332.3" height="36" rx="0" ry="0" fill="#E0F2FE" stroke="#0284C7" stroke-width="2px" />
<rect x="900.2499999999999" y="340.75" width="339.45000000000005" height="36" rx="0" ry="0" fill="#F1F5F9" stroke="#475569" stroke-width="2px" />
<rect x="1359.7" y="340.75" width="453.85" height="36" rx="0" ry="0" fill="#F1F5F9" stroke="#475569" stroke-width="2px" />
<rect x="2118.155" y="312.25" width="368.05" height="36" rx="0" ry="0" fill="#F1F5F9" stroke="#475569" stroke-width="2px" />
<rect x="2734.905" y="276.5" width="282.25" height="36" rx="0" ry="0" fill="#FFEDD5" stroke="#EA580C" stroke-width="2px" />
<rect x="2050.2300000000005" y="158" width="503.90000000000003" height="36" rx="0" ry="0" fill="#FFEDD5" stroke="#EA580C" stroke-width="2px" />
<rect x="2050.2300000000005" y="98" width="503.90000000000003" height="36" rx="0" ry="0" fill="#FFEDD5" stroke="#EA580C" stroke-width="2px" />
<rect x="2071.6800000000003" y="508.75" width="461.00000000000006" height="36" rx="0" ry="0" fill="#DCFCE7" stroke="#16A34A" stroke-width="2px" />
<rect x="2674.13" y="508.75" width="403.8" height="36" rx="0" ry="0" fill="#DCFCE7" stroke="#16A34A" stroke-width="2px" />
<rect x="3197.9300000000003" y="508.75" width="310.85" height="36" rx="0" ry="0" fill="#DCFCE7" stroke="#16A34A" stroke-width="2px" />
<rect x="3628.78" y="510.25" width="310.85" height="33" fill="#DCFCE7" stroke="none" />
<line x1="3628.78" y1="510.25" x2="3628.78" y2="543.25" stroke="#16A34A" stroke-width="2px" />
<line x1="3939.63" y1="510.25" x2="3939.63" y2="543.25" stroke="#16A34A" stroke-width="2px" />
<ellipse cx="3784.2050000000004" cy="543.25" rx="155.425" ry="7" fill="#DCFCE7" stroke="#16A34A" stroke-width="2px" />
<ellipse cx="3784.2050000000004" cy="510.25" rx="155.425" ry="7" fill="#DCFCE7" stroke="#16A34A" stroke-width="2px" />
<rect x="4077.5049999999997" y="508.75" width="689.8000000000001" height="36" rx="0" ry="0" fill="#DCFCE7" stroke="#16A34A" stroke-width="2px" />
<rect x="4059.6299999999997" y="568.75" width="725.5500000000001" height="36" rx="0" ry="0" fill="#FEE2E2" stroke="#DC2626" stroke-width="2px" />
<rect x="2060.9550000000004" y="668.75" width="482.45000000000005" height="36" rx="0" ry="0" fill="#DBEAFE" stroke="#2563EB" stroke-width="2px" />
<rect x="2064.53" y="728.75" width="475.3" height="36" rx="0" ry="0" fill="#DBEAFE" stroke="#2563EB" stroke-width="2px" />
<rect x="2684.855" y="728.75" width="382.35" height="36" rx="0" ry="0" fill="#EDE9FE" stroke="#7C3AED" stroke-width="2px" />
<text x="193.97500000000002" y="384.25" text-anchor="middle" dy="0.35em" font-size="13" font-weight="500" fill="#1E3A8A">&quot;Codex / AI Agent&lt;br/&gt;MCP client&quot;</text>
<text x="193.97500000000002" y="324.25" text-anchor="middle" dy="0.35em" font-size="13" font-weight="500" fill="#075985">&quot;BOS AI Studio&lt;br/&gt;n8n / curl&quot;</text>
<text x="614.1" y="384.25" text-anchor="middle" dy="0.35em" font-size="13" font-weight="500" fill="#1E3A8A">&quot;MCP Server&lt;br/&gt;stdio tool surface&quot;</text>
<text x="614.1" y="324.25" text-anchor="middle" dy="0.35em" font-size="13" font-weight="500" fill="#075985">&quot;FastAPI REST API&lt;br/&gt;X-API-Key protected&quot;</text>
<text x="1069.975" y="358.75" text-anchor="middle" dy="0.35em" font-size="13" font-weight="500" fill="#334155">&quot;Tool / API Router&lt;br/&gt;normalized commands&quot;</text>
<text x="1586.625" y="358.75" text-anchor="middle" dy="0.35em" font-size="13" font-weight="500" fill="#334155">&quot;Operation Layer&lt;br/&gt;list / apply / patch / delete / scale&quot;</text>
<text x="2302.1800000000003" y="330.25" text-anchor="middle" dy="0.35em" font-size="13" font-weight="500" fill="#334155">&quot;Input Validator&lt;br/&gt;schema and manifest parse&quot;</text>
<text x="2876.03" y="294.5" text-anchor="middle" dy="0.35em" font-size="13" font-weight="500" fill="#7C2D12">&quot;Namespace Guard&lt;br/&gt;Policy Engine&quot;</text>
<text x="2302.1800000000003" y="176" text-anchor="middle" dy="0.35em" font-size="13" font-weight="500" fill="#7C2D12">&quot;settings.yaml / .env&lt;br/&gt;namespace, auth, API key, OTLP endpoint&quot;</text>
<text x="2302.1800000000003" y="116" text-anchor="middle" dy="0.35em" font-size="13" font-weight="500" fill="#7C2D12">&quot;policy.yaml&lt;br/&gt;allowed resources, blocked kinds, write controls&quot;</text>
<text x="2302.1800000000003" y="526.75" text-anchor="middle" dy="0.35em" font-size="13" font-weight="500" fill="#166534">&quot;Kubernetes Python Client&lt;br/&gt;in-cluster or kubeconfig auth&quot;</text>
<text x="2876.03" y="526.75" text-anchor="middle" dy="0.35em" font-size="13" font-weight="500" fill="#166534">&quot;Kubernetes API Server&lt;br/&gt;namespaced requests only&quot;</text>
<text x="3353.3550000000005" y="526.75" text-anchor="middle" dy="0.35em" font-size="13" font-weight="500" fill="#166534">&quot;ServiceAccount&lt;br/&gt;Role + RoleBinding&quot;</text>
<text x="3784.2050000000004" y="526.75" text-anchor="middle" dy="0.35em" font-size="13" font-weight="500" fill="#166534">&quot;Allowed Namespace&lt;br/&gt;bosgenesis only&quot;</text>
<text x="4422.405" y="526.75" text-anchor="middle" dy="0.35em" font-size="13" font-weight="500" fill="#166534">&quot;Allowed Resources&lt;br/&gt;pods, logs, deployments, services,&lt;br/&gt;ingresses, configmaps, events&quot;</text>
<text x="4422.405" y="586.75" text-anchor="middle" dy="0.35em" font-size="13" font-weight="500" fill="#7F1D1D">&quot;Blocked By Policy&lt;br/&gt;secrets, RBAC, nodes, namespaces,&lt;br/&gt;exec, port-forward, privileged pods&quot;</text>
<text x="2302.1800000000003" y="686.75" text-anchor="middle" dy="0.35em" font-size="13" font-weight="500" fill="#1E3A8A">&quot;JSONL Audit Log&lt;br/&gt;actor, action, resource, decision, status&quot;</text>
<text x="2302.1800000000003" y="746.75" text-anchor="middle" dy="0.35em" font-size="13" font-weight="500" fill="#1E3A8A">&quot;OpenTelemetry Spans&lt;br/&gt;request, policy, k8s, audit, latency&quot;</text>
<text x="2876.03" y="746.75" text-anchor="middle" dy="0.35em" font-size="13" font-weight="500" fill="#4C1D95">&quot;SigNoz OTel Collector&lt;br/&gt;traces, logs, metrics&quot;</text>
</svg>